<?xml version="1.0" encoding="UTF-8"?>
<!DOCTYPE svg PUBLIC "-//W3C//DTD SVG 1.1//EN" "http://www.w3.org/Graphics/SVG/1.1/DTD/svg11.dtd">
<svg xmlns="http://www.w3.org/2000/svg" version="1.1" width="477px" height="780px" style="shape-rendering:geometricPrecision; text-rendering:geometricPrecision; image-rendering:optimizeQuality; fill-rule:evenodd; clip-rule:evenodd" xmlns:xlink="http://www.w3.org/1999/xlink">
<g><path style="opacity:1" fill="#0d1110" d="M 170.5,-0.5 C 172.5,-0.5 174.5,-0.5 176.5,-0.5C 180.98,0.733147 185.314,2.56648 189.5,5C 200.976,19.444 212.809,33.6106 225,47.5C 225.893,50.433 226.393,53.433 226.5,56.5C 225.956,61.3149 225.123,65.9815 224,70.5C 238.851,86.3838 253.351,102.55 267.5,119C 274.735,116.736 282.068,114.403 289.5,112C 308.239,107.187 324.905,111.52 339.5,125C 382.667,173.5 425.833,222 469,270.5C 472.94,276.028 475.44,282.028 476.5,288.5C 476.5,302.5 476.5,316.5 476.5,330.5C 472.576,345.588 462.909,354.755 447.5,358C 458.654,368.808 465.154,381.975 467,397.5C 468.521,425.482 468.855,453.482 468,481.5C 465.253,515.852 447.086,536.686 413.5,544C 354.47,545.391 295.636,545.891 237,545.5C 199.503,543.006 178.503,523.006 174,485.5C 173.333,454.167 173.333,422.833 174,391.5C 174.474,379.076 178.307,367.909 185.5,358C 179.281,355.977 173.781,352.81 169,348.5C 150.712,360.462 137.045,376.462 128,396.5C 111.95,435.99 111.45,475.657 126.5,515.5C 149.7,518.835 167.2,530.502 179,550.5C 182.269,556.476 184.436,562.809 185.5,569.5C 275.501,569.333 365.501,569.5 455.5,570C 462.631,571.798 467.131,576.298 469,583.5C 469.667,594.167 469.667,604.833 469,615.5C 466.833,623 462,627.833 454.5,630C 379.167,630.5 303.834,630.667 228.5,630.5C 228.5,645.167 228.5,659.833 228.5,674.5C 274.168,674.333 319.835,674.5 365.5,675C 406.112,675.049 433.945,693.883 449,731.5C 452.642,743.026 453.308,754.693 451,766.5C 448.438,772.061 444.272,775.894 438.5,778C 429.324,778.17 420.324,778.67 411.5,779.5C 411.167,779.5 410.833,779.5 410.5,779.5C 303.5,778.167 196.5,778.167 89.5,779.5C 88.8333,779.5 88.1667,779.5 87.5,779.5C 86.8333,778.167 86.1667,778.167 85.5,779.5C 84.5,779.5 83.5,779.5 82.5,779.5C 81.1667,778.167 79.8333,778.167 78.5,779.5C 78.1667,779.5 77.8333,779.5 77.5,779.5C 76.8333,778.167 76.1667,778.167 75.5,779.5C 74.8333,779.5 74.1667,779.5 73.5,779.5C 57.5,778.167 41.5,778.167 25.5,779.5C 25.1667,779.5 24.8333,779.5 24.5,779.5C 24.1667,778.167 23.8333,778.167 23.5,779.5C 23.1667,779.5 22.8333,779.5 22.5,779.5C 9.43507,776.767 1.76841,768.767 -0.5,755.5C -0.5,745.167 -0.5,734.833 -0.5,724.5C 1.81213,699.013 15.3121,682.68 40,675.5C 45.5401,661.046 51.3734,646.713 57.5,632.5C 45.2312,614.323 41.2312,594.489 45.5,573C 33.4396,548.261 26.6063,522.095 25,494.5C 20.5195,446.854 27.8528,401.187 47,357.5C 67.1301,315.703 97.2968,283.203 137.5,260C 144.516,255.989 151.85,252.822 159.5,250.5C 159.872,243.163 160.372,235.829 161,228.5C 161.568,224.463 162.735,220.63 164.5,217C 149.87,200.035 134.87,183.368 119.5,167C 114.403,168.905 109.07,169.571 103.5,169C 97.1044,167.303 91.4378,164.303 86.5,160C 74.5917,148.096 63.425,135.596 53,122.5C 50.2106,113.536 51.5439,105.203 57,97.5C 81.8728,64.2937 111.039,35.4603 144.5,11C 152.663,5.74569 161.33,1.91236 170.5,-0.5 Z"/></g>
<g><path style="opacity:1" fill="#5d6260" d="M 188.5,70.5 C 177.15,57.1946 165.317,44.1946 153,31.5C 152.329,32.2524 151.496,32.5858 150.5,32.5C 156.137,27.6743 162.47,23.8409 169.5,21C 171.902,20.1859 174.235,20.3526 176.5,21.5C 186.688,33.1867 196.688,45.02 206.5,57C 200.623,61.7167 194.623,66.2167 188.5,70.5 Z"/></g>
<g><path style="opacity:1" fill="#464b49" d="M 188.5,70.5 C 170.635,84.3554 153.635,99.3554 137.5,115.5C 126.068,102.311 114.401,89.3114 102.5,76.5C 116.995,59.9968 132.995,45.3301 150.5,32.5C 151.496,32.5858 152.329,32.2524 153,31.5C 165.317,44.1946 177.15,57.1946 188.5,70.5 Z"/></g>
<g><path style="opacity:1" fill="#c7c7bf" d="M 231.5,142.5 C 231.291,141.078 230.791,139.745 230,138.5C 218.667,125.167 207.333,111.833 196,98.5C 194.549,96.5359 192.716,95.2026 190.5,94.5C 194.639,90.532 198.973,86.6987 203.5,83C 204.759,82.0181 206.092,81.6848 207.5,82C 220.962,97.7978 234.796,113.298 249,128.5C 249.749,129.635 249.583,130.635 248.5,131.5C 243.067,135.613 237.401,139.28 231.5,142.5 Z"/></g>
<g><path style="opacity:1" fill="#acada6" d="M 190.5,94.5 C 192.716,95.2026 194.549,96.5359 196,98.5C 207.333,111.833 218.667,125.167 230,138.5C 230.791,139.745 231.291,141.078 231.5,142.5C 216.893,155.102 202.56,168.102 188.5,181.5C 188.685,179.804 189.519,178.471 191,177.5C 191.667,176.5 191.667,175.5 191,174.5C 178.957,160.792 167.29,146.792 156,132.5C 154.89,130.963 153.39,130.297 151.5,130.5C 163.541,117.339 176.541,105.339 190.5,94.5 Z"/></g>
<g><path style="opacity:1" fill="#2c3232" d="M 102.5,76.5 C 114.401,89.3114 126.068,102.311 137.5,115.5C 126.619,126.318 116.452,137.651 107,149.5C 93.6478,138.981 81.8145,126.981 71.5,113.5C 79.7002,99.4671 90.0336,87.1338 102.5,76.5 Z"/></g>
<g><path style="opacity:1" fill="#91928a" d="M 151.5,130.5 C 153.39,130.297 154.89,130.963 156,132.5C 167.29,146.792 178.957,160.792 191,174.5C 191.667,175.5 191.667,176.5 191,177.5C 189.519,178.471 188.685,179.804 188.5,181.5C 184.211,186.961 179.711,192.294 175,197.5C 161.333,182.5 147.667,167.5 134,152.5C 133.333,151.167 133.333,149.833 134,148.5C 139.337,141.996 145.171,135.996 151.5,130.5 Z"/></g>
<g><path style="opacity:1" fill="#dcdbd5" d="M 188.5,288.5 C 188.369,287.761 188.536,287.094 189,286.5C 195.511,287.134 202.011,287.468 208.5,287.5C 208.5,275.833 208.5,264.167 208.5,252.5C 209.495,263.988 209.828,275.655 209.5,287.5C 282.167,287.667 354.834,287.5 427.5,287C 382.5,236.667 337.5,186.333 292.5,136C 292.833,135.667 293.167,135.333 293.5,135C 292.207,134.51 290.873,134.343 289.5,134.5C 301.645,129.347 312.979,130.847 323.5,139C 367.74,186.569 411.24,234.736 454,283.5C 455.187,285.044 455.52,286.711 455,288.5C 366.242,288.58 277.409,288.58 188.5,288.5 Z"/></g>
<g><path style="opacity:1" fill="#c5c6bd" d="M 289.5,134.5 C 290.873,134.343 292.207,134.51 293.5,135C 293.167,135.333 292.833,135.667 292.5,136C 337.5,186.333 382.5,236.667 427.5,287C 354.834,287.5 282.167,287.667 209.5,287.5C 209.828,275.655 209.495,263.988 208.5,252.5C 208.279,230.792 208.945,209.126 210.5,187.5C 229.903,166.609 252.569,150.109 278.5,138C 282.021,136.326 285.687,135.16 289.5,134.5 Z"/></g>
<g><path style="opacity:1" fill="#93948c" d="M 210.5,187.5 C 208.945,209.126 208.279,230.792 208.5,252.5C 208.5,264.167 208.5,275.833 208.5,287.5C 202.011,287.468 195.511,287.134 189,286.5C 188.536,287.094 188.369,287.761 188.5,288.5C 185.552,288.777 182.719,288.444 180,287.5C 179.333,268.833 179.333,250.167 180,231.5C 181.383,224.071 184.383,217.404 189,211.5C 195.662,203.007 202.828,195.007 210.5,187.5 Z"/></g>
<g><path style="opacity:1" fill="#94958c" d="M 131.5,352.5 C 129.771,348.37 128.604,344.036 128,339.5C 126.968,326.276 125.468,313.109 123.5,300C 123.84,297.489 124.84,295.322 126.5,293.5C 135.814,285.165 146.48,278.832 158.5,274.5C 159.833,292.833 159.833,311.167 158.5,329.5C 148.459,336.009 139.459,343.676 131.5,352.5 Z"/></g>
<g><path style="opacity:1" fill="#c4c5bc" d="M 126.5,293.5 C 124.84,295.322 123.84,297.489 123.5,300C 125.468,313.109 126.968,326.276 128,339.5C 128.604,344.036 129.771,348.37 131.5,352.5C 113.833,375.184 102.666,400.851 98,429.5C 96.4581,446.468 96.1248,463.468 97,480.5C 98.4196,492.512 101.253,504.178 105.5,515.5C 91.5575,517.309 79.2241,522.643 68.5,531.5C 66.8639,530.251 65.6972,528.584 65,526.5C 51.9885,491.412 46.6551,455.412 49,418.5C 48.5868,423.95 47.7535,427.95 46.5,430.5C 53.9092,373.317 80.5759,327.65 126.5,293.5 Z"/></g>
<g><path style="opacity:1" fill="#96978f" d="M 375.5,309.5 C 319.833,310.167 264.167,310.833 208.5,311.5C 209.609,319.831 212.275,327.498 216.5,334.5C 217.11,335.391 217.443,336.391 217.5,337.5C 207.062,337.951 196.729,337.451 186.5,336C 183.131,333.635 180.964,330.468 180,326.5C 179.194,320.916 179.361,315.416 180.5,310C 245.499,309.5 310.499,309.333 375.5,309.5 Z"/></g>
<g><path style="opacity:1" fill="#c4c5bc" d="M 396.5,309.5 C 406.833,309.5 417.167,309.5 427.5,309.5C 427.997,318.664 427.997,327.664 427.5,336.5C 390.975,336.112 353.808,336.112 316,336.5C 283.5,336.167 251,335.833 218.5,335.5C 217.964,333.855 217.297,333.522 216.5,334.5C 212.275,327.498 209.609,319.831 208.5,311.5C 281.167,311.667 353.834,311.5 426.5,311C 416.325,310.83 406.325,310.33 396.5,309.5 Z"/></g>
<g><path style="opacity:1" fill="#dddcd6" d="M 427.5,309.5 C 437.083,309.182 446.583,309.515 456,310.5C 456.667,316.833 456.667,323.167 456,329.5C 454.5,333 452,335.5 448.5,337C 371.501,337.5 294.501,337.667 217.5,337.5C 217.443,336.391 217.11,335.391 216.5,334.5C 217.297,333.522 217.964,333.855 218.5,335.5C 251,335.833 283.5,336.167 316,336.5C 353.808,336.112 390.975,336.112 427.5,336.5C 427.997,327.664 427.997,318.664 427.5,309.5 Z"/></g>
<g><path style="opacity:1" fill="#dad9d3" d="M 375.5,309.5 C 382.5,309.5 389.5,309.5 396.5,309.5C 406.325,310.33 416.325,310.83 426.5,311C 353.834,311.5 281.167,311.667 208.5,311.5C 264.167,310.833 319.833,310.167 375.5,309.5 Z"/></g>
<g><path style="opacity:1" fill="#b6b7af" d="M 207.5,359.5 C 275.331,358.501 343.331,358.167 411.5,358.5C 399.431,359.176 387.265,359.842 375,360.5C 318.3,359.981 262.467,359.647 207.5,359.5 Z"/></g>
<g><path style="opacity:1" fill="#92938a" d="M 411.5,358.5 C 415.637,358.146 419.637,358.646 423.5,360C 428.71,363.709 433.043,368.209 436.5,373.5C 369.166,373.333 301.833,373.5 234.5,374C 228.784,374.282 223.117,374.948 217.5,376C 215.588,379.522 214.421,383.355 214,387.5C 212.814,412.649 211.981,437.816 211.5,463C 211.059,479.327 214.893,494.494 223,508.5C 227.703,515.054 233.87,519.388 241.5,521.5C 242.833,522.5 244.167,523.5 245.5,524.5C 219.124,528.171 202.124,517.505 194.5,492.5C 194.206,460.831 194.54,428.997 195.5,397C 195.333,396.5 195.167,396 195,395.5C 194.722,396.416 194.222,397.082 193.5,397.5C 194.118,384.941 197.618,373.274 204,362.5C 205.039,361.29 206.206,360.29 207.5,359.5C 262.467,359.647 318.3,359.981 375,360.5C 387.265,359.842 399.431,359.176 411.5,358.5 Z"/></g>
<g><path style="opacity:1" fill="#c5c6bd" d="M 436.5,373.5 C 443.384,383.314 447.217,394.314 448,406.5C 448.667,432.833 448.667,459.167 448,485.5C 446.863,494.437 443.53,502.437 438,509.5C 436.549,511.464 434.716,512.797 432.5,513.5C 425.678,518.388 418.011,521.221 409.5,522C 352.776,522.435 299.609,522.935 250,523.5C 247.209,522.594 244.376,521.927 241.5,521.5C 233.87,519.388 227.703,515.054 223,508.5C 214.893,494.494 211.059,479.327 211.5,463C 211.981,437.816 212.814,412.649 214,387.5C 214.421,383.355 215.588,379.522 217.5,376C 223.117,374.948 228.784,374.282 234.5,374C 301.833,373.5 369.166,373.333 436.5,373.5 Z"/></g>
<g><path style="opacity:1" fill="#0d1211" d="M 258.5,391.5 C 272.268,390.772 281.768,396.772 287,409.5C 292.62,425.171 291.286,440.171 283,454.5C 273.958,465.237 263.125,467.403 250.5,461C 238.115,449.472 233.615,435.305 237,418.5C 239.447,405.544 246.613,396.544 258.5,391.5 Z"/></g>
<g><path style="opacity:1" fill="#0d1211" d="M 394.5,391.5 C 408.276,390.784 417.776,396.784 423,409.5C 428.601,425.173 427.267,440.173 419,454.5C 409.948,465.253 399.115,467.42 386.5,461C 374.885,450.415 370.385,437.248 373,421.5C 374.587,407.269 381.753,397.269 394.5,391.5 Z"/></g>
<g><path style="opacity:1" fill="#d7d6d0" d="M 267.5,404.5 C 273.378,405.372 276.378,408.872 276.5,415C 276.292,419.536 274.125,422.703 270,424.5C 262.22,420.824 260.22,415.157 264,407.5C 265.145,406.364 266.312,405.364 267.5,404.5 Z"/></g>
<g><path style="opacity:1" fill="#dbdad4" d="M 403.5,405.5 C 411.002,407.066 413.836,411.733 412,419.5C 407.426,426.13 403.092,425.797 399,418.5C 397.721,413.085 399.221,408.751 403.5,405.5 Z"/></g>
<g><path style="opacity:1" fill="#92938b" d="M 68.5,531.5 C 64.2275,535.947 60.0608,540.613 56,545.5C 46.716,520.014 42.5493,493.681 43.5,466.5C 43.1883,454.239 44.1883,442.239 46.5,430.5C 47.7535,427.95 48.5868,423.95 49,418.5C 46.6551,455.412 51.9885,491.412 65,526.5C 65.6972,528.584 66.8639,530.251 68.5,531.5 Z"/></g>
<g><path style="opacity:1" fill="#b6b7af" d="M 194.5,492.5 C 193.537,460.854 193.204,429.187 193.5,397.5C 194.222,397.082 194.722,396.416 195,395.5C 195.167,396 195.333,396.5 195.5,397C 194.54,428.997 194.206,460.831 194.5,492.5 Z"/></g>
<g><path style="opacity:1" fill="#0f1312" d="M 303.5,465.5 C 309.769,468.635 316.103,471.801 322.5,475C 331.722,477.37 340.722,476.704 349.5,473C 353.645,469.845 358.145,467.345 363,465.5C 364.605,466.101 365.938,467.101 367,468.5C 368.672,474.658 366.838,479.491 361.5,483C 340.776,495.302 320.943,494.135 302,479.5C 298.181,474.099 298.681,469.433 303.5,465.5 Z"/></g>
<g><path style="opacity:1" fill="#d9d8d2" d="M 432.5,513.5 C 429.961,516.19 426.961,518.357 423.5,520C 416.726,522.488 409.726,523.821 402.5,524C 350.168,524.5 297.834,524.667 245.5,524.5C 244.167,523.5 242.833,522.5 241.5,521.5C 244.376,521.927 247.209,522.594 250,523.5C 299.609,522.935 352.776,522.435 409.5,522C 418.011,521.221 425.678,518.388 432.5,513.5 Z"/></g>
<g><path style="opacity:1" fill="#464b49" d="M 115.5,632.5 C 115.611,631.883 115.944,631.383 116.5,631C 115.167,629.667 113.833,628.333 112.5,627C 112.833,626.667 113.167,626.333 113.5,626C 108.978,621.977 104.978,617.477 101.5,612.5C 114.115,609.19 120.448,600.857 120.5,587.5C 119.495,575.681 113.495,567.847 102.5,564C 90.1987,563.614 82.3653,569.447 79,581.5C 78.3239,586.871 78.4905,592.204 79.5,597.5C 74.1115,591.083 68.9448,584.416 64,577.5C 63.79,579.058 63.29,580.391 62.5,581.5C 64.0028,564.474 72.0028,551.308 86.5,542C 98.9425,535.461 110.942,536.127 122.5,544C 138.54,558.285 144.706,576.119 141,597.5C 138.762,609.478 133.262,619.645 124.5,628C 121.714,630.06 118.714,631.56 115.5,632.5 Z"/></g>
<g><path style="opacity:1" fill="#333938" d="M 137.5,536.5 C 153.123,542.319 163.29,553.652 168,570.5C 173.031,593.396 167.198,612.896 150.5,629C 147,631.167 143.5,633.333 140,635.5C 157.756,611.895 161.756,585.895 152,557.5C 148.624,549.388 143.791,542.388 137.5,536.5 Z"/></g>
<g><path style="opacity:1" fill="#0c1110" d="M 101.5,612.5 C 90.9272,612.262 83.5939,607.262 79.5,597.5C 78.4905,592.204 78.3239,586.871 79,581.5C 82.3653,569.447 90.1987,563.614 102.5,564C 113.495,567.847 119.495,575.681 120.5,587.5C 120.448,600.857 114.115,609.19 101.5,612.5 Z"/></g>
<g><path style="opacity:1" fill="#262b2a" d="M 94.5,579.5 C 101.827,580.81 104.661,585.143 103,592.5C 99.8948,596.002 96.8948,596.002 94,592.5C 91.3793,587.76 91.5459,583.427 94.5,579.5 Z"/></g>
<g><path style="opacity:1" fill="#5c625f" d="M 449.5,591.5 C 448.955,595.172 448.622,594.838 448.5,590.5C 387.781,590.958 326.781,591.124 265.5,591C 264.751,592.734 264.251,594.567 264,596.5C 263.506,594.866 263.34,593.199 263.5,591.5C 263.611,590.883 263.944,590.383 264.5,590C 295.333,589.833 326.167,589.667 357,589.5C 388.174,589.5 419.007,590.167 449.5,591.5 Z"/></g>
<g><path style="opacity:1" fill="#464b49" d="M 449.5,591.5 C 450.165,594.482 450.498,597.648 450.5,601C 450.45,604.603 449.783,607.936 448.5,611C 388.167,611.667 327.833,611.667 267.5,611C 264.617,609.411 263.117,606.911 263,603.5C 262.188,599.311 262.355,595.311 263.5,591.5C 263.34,593.199 263.506,594.866 264,596.5C 264.251,594.567 264.751,592.734 265.5,591C 326.781,591.124 387.781,590.958 448.5,590.5C 448.622,594.838 448.955,595.172 449.5,591.5 Z"/></g>
<g><path style="opacity:1" fill="#2c3131" d="M 191.5,588.5 C 208.333,589.827 225.167,589.827 242,588.5C 243.132,591.984 243.632,595.651 243.5,599.5C 243.482,603.084 243.148,606.584 242.5,610C 238.247,610.2 234.08,610.7 230,611.5C 218.892,610.458 208.559,610.458 199,611.5C 195.924,610.712 192.758,610.212 189.5,610C 188.521,603.256 188.188,596.422 188.5,589.5C 189.791,589.737 190.791,589.404 191.5,588.5 Z"/></g>
<g><path style="opacity:1" fill="#2c3231" d="M 79.5,597.5 C 83.5939,607.262 90.9272,612.262 101.5,612.5C 104.978,617.477 108.978,621.977 113.5,626C 113.167,626.333 112.833,626.667 112.5,627C 113.833,628.333 115.167,629.667 116.5,631C 115.944,631.383 115.611,631.883 115.5,632.5C 113.239,634.255 110.572,635.422 107.5,636C 85.7003,637.012 71.2003,627.178 64,606.5C 61.5256,598.224 61.0256,589.891 62.5,581.5C 63.29,580.391 63.79,579.058 64,577.5C 68.9448,584.416 74.1115,591.083 79.5,597.5 Z"/></g>
<g><path style="opacity:1" fill="#93948c" d="M 192.5,629.5 C 198.425,629.192 204.259,629.525 210,630.5C 210.521,653.505 210.355,676.505 209.5,699.5C 203.158,699.666 196.825,699.5 190.5,699C 189.62,697.644 189.286,696.144 189.5,694.5C 189.856,672.775 190.856,651.109 192.5,629.5 Z"/></g>
<g><path style="opacity:1" fill="#c5c6bd" d="M 132.5,676.5 C 136.031,670.122 140.198,664.122 145,658.5C 145.909,656.342 146.075,654.342 145.5,652.5C 156.083,648.128 164.917,641.461 172,632.5C 172.833,651.842 172.666,671.175 171.5,690.5C 158.922,684.641 145.922,679.974 132.5,676.5 Z"/></g>
<g><path style="opacity:1" fill="#95968e" d="M 145.5,652.5 C 146.075,654.342 145.909,656.342 145,658.5C 140.198,664.122 136.031,670.122 132.5,676.5C 129.544,675.863 126.544,675.363 123.5,675C 103.169,674.5 82.8361,674.333 62.5,674.5C 65.7812,665.27 69.6145,656.27 74,647.5C 82.856,653.675 92.6893,657.175 103.5,658C 117.931,659.189 131.931,657.356 145.5,652.5 Z"/></g>
<g><path style="opacity:1" fill="#b7b8b1" d="M 192.5,629.5 C 190.856,651.109 189.856,672.775 189.5,694.5C 189.5,672.833 189.5,651.167 189.5,629.5C 190.5,629.5 191.5,629.5 192.5,629.5 Z"/></g>
<g><path style="opacity:1" fill="#92938a" d="M 46.5,695.5 C 58.3217,696.495 70.3217,696.828 82.5,696.5C 82.2267,698.451 82.8934,699.951 84.5,701C 106.768,705.085 127.435,713.085 146.5,725C 155.502,731.337 162.336,739.504 167,749.5C 167.497,752.146 167.664,754.813 167.5,757.5C 119.664,757.168 71.9971,757.501 24.5,758.5C 21.9315,758.406 20.4315,757.072 20,754.5C 19.3333,743.167 19.3333,731.833 20,720.5C 23.2032,706.128 32.0365,697.795 46.5,695.5 Z"/></g>
<g><path style="opacity:1" fill="#c4c5bc" d="M 46.5,695.5 C 72.8354,695.333 99.1688,695.5 125.5,696C 142.539,699.694 158.539,705.861 173.5,714.5C 176.72,716.979 180.387,718.812 184.5,720C 213,720.167 241.5,720.333 270,720.5C 298.841,720.5 327.341,719.833 355.5,718.5C 362.206,719.285 369.206,719.285 376.5,718.5C 364.691,709.269 352.024,701.602 338.5,695.5C 351.504,695.333 364.504,695.5 377.5,696C 395.815,697.483 410.149,705.649 420.5,720.5C 427.695,731.752 431.695,744.086 432.5,757.5C 384.324,757.66 336.824,757.326 290,756.5C 287.641,756.324 287.141,756.991 288.5,758.5C 287.833,758.5 287.167,758.5 286.5,758.5C 281.881,757.172 276.881,756.506 271.5,756.5C 237.332,757.334 202.665,757.668 167.5,757.5C 167.664,754.813 167.497,752.146 167,749.5C 162.336,739.504 155.502,731.337 146.5,725C 127.435,713.085 106.768,705.085 84.5,701C 82.8934,699.951 82.2267,698.451 82.5,696.5C 70.3217,696.828 58.3217,696.495 46.5,695.5 Z"/></g>
<g><path style="opacity:1" fill="#404644" d="M 309.5,695.5 C 309.443,696.609 309.11,697.609 308.5,698.5C 297.296,697.443 286.296,696.609 275.5,696C 278.139,694.882 280.973,694.382 284,694.5C 292.486,695.221 300.986,695.555 309.5,695.5 Z"/></g>
<g><path style="opacity:1" fill="#989990" d="M 309.5,695.5 C 319.167,695.5 328.833,695.5 338.5,695.5C 352.024,701.602 364.691,709.269 376.5,718.5C 369.206,719.285 362.206,719.285 355.5,718.5C 355.167,718.5 354.833,718.5 354.5,718.5C 354.391,711.879 351.058,707.713 344.5,706C 332.963,701.282 320.963,698.782 308.5,698.5C 309.11,697.609 309.443,696.609 309.5,695.5 Z"/></g>
<g><path style="opacity:1" fill="#dddcd6" d="M 173.5,714.5 C 177.772,716.091 182.106,717.591 186.5,719C 242.668,719.832 298.668,719.665 354.5,718.5C 354.833,718.5 355.167,718.5 355.5,718.5C 327.341,719.833 298.841,720.5 270,720.5C 241.5,720.333 213,720.167 184.5,720C 180.387,718.812 176.72,716.979 173.5,714.5 Z"/></g>
<g><path style="opacity:1" fill="#dbdad4" d="M 420.5,720.5 C 429.19,731.567 433.523,744.234 433.5,758.5C 385.167,758.5 336.833,758.5 288.5,758.5C 287.141,756.991 287.641,756.324 290,756.5C 336.824,757.326 384.324,757.66 432.5,757.5C 431.695,744.086 427.695,731.752 420.5,720.5 Z"/></g>
<g><path style="opacity:1" fill="#d3d2cb" d="M 286.5,758.5 C 199.167,758.5 111.833,758.5 24.5,758.5C 71.9971,757.501 119.664,757.168 167.5,757.5C 202.665,757.668 237.332,757.334 271.5,756.5C 276.881,756.506 281.881,757.172 286.5,758.5 Z"/></g>
</svg>
